<svg id="Layer_2" data-name="Layer 2" xmlns="http://www.w3.org/2000/svg" xmlns:xlink="http://www.w3.org/1999/xlink" viewBox="0 0 165.35 235.73"><defs><style>.cls-1{fill:url(#linear-gradient);}.cls-2{fill:#221f20;}.cls-3{fill:url(#linear-gradient-2);}.cls-4{fill:url(#linear-gradient-3);}.cls-5{font-size:16.54px;fill:#f29100;font-family:SuiGenerisRg-Regular, SuiGenerisRg Regular;}.cls-6{letter-spacing:0em;}.cls-7{letter-spacing:-0.01em;}.cls-8{letter-spacing:0em;}.cls-9{letter-spacing:0em;}.cls-10{letter-spacing:-0.01em;}.cls-11{letter-spacing:-0.02em;}.cls-12{fill:#fff;}.cls-13{fill:url(#linear-gradient-4);}.cls-14{fill:url(#linear-gradient-5);}</style><linearGradient id="linear-gradient" x1="435.7" y1="190.87" x2="433.06" y2="475.03" gradientUnits="userSpaceOnUse"><stop offset="0" stop-color="#fcea0d"/><stop offset="0.07" stop-color="#fbdf0b"/><stop offset="0.33" stop-color="#f7bd06"/><stop offset="0.58" stop-color="#f4a503"/><stop offset="0.81" stop-color="#f39601"/><stop offset="1" stop-color="#f29100"/></linearGradient><linearGradient id="linear-gradient-2" x1="441.37" y1="398.72" x2="441.37" y2="188.47" xlink:href="#linear-gradient"/><linearGradient id="linear-gradient-3" x1="360.12" y1="397.14" x2="360.12" y2="198.42" gradientUnits="userSpaceOnUse"><stop offset="0" stop-color="#35a8e0"/><stop offset="0.13" stop-color="#309cd7"/><stop offset="0.45" stop-color="#2684c6"/><stop offset="0.75" stop-color="#1f75bb"/><stop offset="1" stop-color="#1d70b7"/></linearGradient><linearGradient id="linear-gradient-4" x1="376.87" y1="217.38" x2="374.95" y2="423.07" xlink:href="#linear-gradient-3"/><linearGradient id="linear-gradient-5" x1="395.68" y1="397.14" x2="395.68" y2="198.42" xlink:href="#linear-gradient-3"/></defs><path class="cls-1" d="M441.1,271.85v-11h12.25l-25.88-45.07-25.86,45.07h13.05v39.31a29,29,0,0,1,21.75,28.06,80.6,80.6,0,0,1-1.21,8.24,29,29,0,0,1-11.84,15.95,2.14,2.14,0,0,0-.44.73c-.14.41,11,22.71,11.31,23.13a2.12,2.12,0,0,0,.61.55c.19.12.38.17.43.22v0a10.52,10.52,0,0,0,3.1-3.36c1.54-2.7,2.73-24.55,2.73-29.65V286.3h25.56V405.69H386.13v14.47h95V271.85Z" transform="translate(-315.79 -215.74)"/><path class="cls-2" d="M435.27,377h0a1,1,0,0,1-.17.12Z" transform="translate(-315.79 -215.74)"/><path class="cls-3" d="M414.66,300.12a29,29,0,0,1,21.75,28.06,80.6,80.6,0,0,1-1.21,8.24,29,29,0,0,1-11.84,15.95,2.14,2.14,0,0,0-.44.73c-.09.27,4.72,10.07,8.1,16.82,2.83-.49,5.65-1,8.46-1.63,1-7.57,1.62-20.51,1.62-24.28V286.3h25.56v74.32c1-.35,1.94-.69,2.9-1.06,3.95-1.82,7.82-3.8,11.58-6V271.85h-40v-11h12.25l-25.88-45.07-25.86,45.07h13.05Z" transform="translate(-315.79 -215.74)"/><path class="cls-4" d="M330.27,373.26v-87h74.17V271.85H315.8V372.63C320.62,372.88,325.44,373.1,330.27,373.26Z" transform="translate(-315.79 -215.74)"/><text class="cls-5" transform="translate(0 230.77) scale(0.99 1.2)">i<tspan class="cls-6" x="3.87" y="0">n</tspan><tspan class="cls-7" x="12.98" y="0">t</tspan><tspan x="18.36" y="0">e</tspan><tspan class="cls-8" x="26.65" y="0">r</tspan><tspan x="32.12" y="0">n</tspan><tspan class="cls-9" x="41.3" y="0">a</tspan><tspan x="49.21" y="0">tional shiping </tspan><tspan class="cls-10" x="147.01" y="0">c</tspan><tspan class="cls-11" x="154.33" y="0">o</tspan><tspan x="163.01" y="0">.</tspan></text><rect class="cls-12" x="110.95" y="103.05" width="3.06" height="13.62"/><rect class="cls-12" x="110.06" y="24.67" width="3.06" height="13.62"/><rect class="cls-12" x="110.06" y="44.84" width="3.06" height="13.62"/><rect class="cls-12" x="110.06" y="64.15" width="3.06" height="13.62"/><rect class="cls-12" x="111.59" y="103.05" width="3.06" height="13.62"/><rect class="cls-12" x="110.06" y="83.6" width="3.06" height="13.62"/><rect class="cls-12" x="110.06" y="4.5" width="3.06" height="13.62"/><rect class="cls-12" x="110.06" y="122.5" width="3.06" height="13.62"/><rect class="cls-12" x="110.06" y="141.95" width="3.06" height="13.62"/><path class="cls-13" d="M386.13,420.16s-.06-61.77,0-62,.66-.07,4.57,0c.46.13,8.68,14.79,9,15.37,1.88,3,2.73,5.37,4.9,5.59,4.5.48,20.79.29,25.6-.37a10,10,0,0,0,4.42-1.3,6.79,6.79,0,0,0,.6-.39v0c0-.05-.24-.1-.43-.22a2.12,2.12,0,0,1-.61-.55c-.31-.42-11.45-22.72-11.31-23.13a2.14,2.14,0,0,1,.44-.73,29,29,0,0,0,11.84-15.95,80.6,80.6,0,0,0,1.21-8.24,29,29,0,0,0-23.81-28.52c-.33-.07-3.77-.45-5.17-.45-1,0-41.37,0-42.77.19-6.26,1.16-9.74,4.76-9.72,9.64,0,10.61.09,67.17.13,96.65h-24.8V286.3h74.17V271.85H315.8V420.16h39.28m55.71-77c-3.5,3.17-9.59,4.88-16.86,4.88-3.46,0-6.55-.14-9.12-.38V314.16a76,76,0,0,1,10.61-.7c7,0,12.06,1.45,15.35,4.23s5.34,6.72,5.34,12.21S414.3,340,410.79,343.14Z" transform="translate(-315.79 -215.74)"/><path class="cls-14" d="M364.66,299.4c-6.26,1.16-9.74,4.76-9.72,9.64,0,7.43.05,37.35.09,64.75,10.34.11,20.72.09,31.08-.21,0-8.89,0-15.37,0-15.46s.66-.07,4.57,0c.42.11,7.31,12.35,8.77,14.92,8.63-.47,17.24-1.16,25.79-2.18q2.88-.44,5.75-.94c-3.38-6.75-8.19-16.55-8.1-16.82a2.14,2.14,0,0,1,.44-.73,29,29,0,0,0,11.84-15.95,80.6,80.6,0,0,0,1.21-8.24,29,29,0,0,0-23.81-28.52c-.33-.07-3.77-.45-5.17-.45C406.39,299.21,366.06,299.16,364.66,299.4Zm46.11,18.29c3.33,2.78,5.34,6.72,5.34,12.21s-1.81,10.1-5.32,13.24S401.2,348,393.93,348c-3.46,0-6.55-.14-9.12-.38V314.16a76,76,0,0,1,10.61-.7C402.38,313.46,407.48,314.91,410.77,317.69Z" transform="translate(-315.79 -215.74)"/></svg>